# xmcd
#
# Track frame offsets:
#	150
#	15430
#	32296
#	49121
#	66351
#	84255
#	101873
#	117432
#	132182
#	150388
#	166872
#	180434
#
# Disc length: 2625 seconds
#
# Revision: 1
# Processed by: cddbd v1.5.2PL0 Copyright (c) Steve Scherf et al.
# Submitted via: EasyCDDAExtractor 15.3.0.1
#
DISCID=880a3f0c
DTITLE=Gloria Trevi - De Pelicula
DYEAR=2013
DGENRE=Latin
TTITLE0=De Pelicula
TTITLE1=Mujer Maravilla
TTITLE2=No Querias Lastimarme
TTITLE3=Habla Blah Blah (Featuring Shy Carter)
TTITLE4=Sabes
TTITLE5=Aurora
TTITLE6=Libre Para Amarte
TTITLE7=Bipolar
TTITLE8=Por Que Tan Triste
TTITLE9=No Soy Un Pajaro
TTITLE10=No Me Ames
TTITLE11=No Soy Un Pajaro (Banda)
EXTD=
EXTT0=
EXTT1=
EXTT2=
EXTT3=
EXTT4=
EXTT5=
EXTT6=
EXTT7=
EXTT8=
EXTT9=
EXTT10=
EXTT11=
PLAYORDER=
